<svg width="311" height="27" viewBox="0 0 311 27" fill="none" xmlns="http://www.w3.org/2000/svg">
<path fill-rule="evenodd" clip-rule="evenodd" d="M3.87399 14.9508C4.09525 14.9217 4.45618 14.9508 4.45618 14.8343C4.2608 14.8237 4.06635 14.8003 3.87399 14.7644C3.03336 14.9036 2.18179 14.966 1.32983 14.9508C0.316833 14.0186 0.322632 13.069 1.50449 12.1136C0.0606384 11.9563 1.60928 11.7815 0.340118 11.496C1.60345 11.531 2.4418 11.7291 3.75174 11.7465C3.36166 11.3853 3.61783 10.7794 2.00516 10.8668C1.70242 10.4998 2.43015 10.4299 2.83768 10.2842C1.26578 9.82982 1.9877 8.7695 1.61511 8.06457C1.90405 8.02339 2.18729 7.94911 2.45929 7.84318C2.01099 7.58684 2.66888 7.36546 1.87711 7.0159C2.44467 6.95373 3.01779 6.96352 3.58292 7.04503C3.16373 6.87608 3.86237 6.70713 3.0007 6.59644C3.87399 6.25854 3.46063 5.90898 4.66577 5.58856C4.70651 5.76916 5.60309 5.62351 5.5274 5.8449C5.1257 6.06628 4.83459 5.74586 4.68323 5.96724C4.80548 6.14202 5.77777 6.0022 5.54489 6.31097C5.15753 6.30242 4.77332 6.38211 4.42126 6.54401C5.66132 6.57896 5.1315 6.84695 4.72397 7.1266C6.66849 7.4412 7.26816 6.89356 8.67706 6.60227C8.18802 6.3168 7.93765 6.32845 8.93903 6.11872C7.3089 5.8449 9.73663 4.89527 8.59555 4.43503C8.96814 4.32434 9.64349 4.30686 9.71918 4.10878C9.17773 3.77087 10.0044 2.22118 12.1877 1.84832C12.6534 2.43092 12.8804 2.7863 11.6695 3.18828C12.7174 3.72427 11.0058 4.04469 11.4425 4.70885C12.304 4.66647 13.1559 4.50773 13.9749 4.23695C14.0565 4.04469 13.5849 4.06217 13.3928 3.97478C13.9284 3.934 14.0215 4.05634 14.5572 4.02721C14.4116 3.29898 15.7681 3.01351 15.6284 2.27944C17.8524 2.08719 15.9078 1.24826 18.1376 1.056C17.2702 1.71433 17.7476 3.01351 16.525 3.56697C17.1071 3.60775 16.7287 4.00391 17.3924 4.00974C21.3746 3.60192 19.5407 1.46964 22.9465 0.688969C23.7906 1.0327 22.6845 1.43469 22.1314 1.6619C22.7893 2.0231 22.9931 2.24449 22.4458 2.59404C24.6407 3.56114 25.3568 1.51042 26.6492 1.03852C26.7016 1.14339 27.1033 1.12591 27.4992 1.10261C27.0509 1.42886 27.2722 1.57451 28.0814 1.65024C26.393 1.80172 28.6985 2.23283 27.2664 2.62317C26.7715 2.69308 25.5955 2.56491 25.5663 2.77464C25.6479 3.11837 26.5852 3.00185 27.278 2.90281C27.8136 3.07177 27.5574 3.29898 27.8602 3.35724C28.8557 3.18246 29.1759 2.8096 30.1016 2.62317C29.7115 2.40761 29.5194 2.58239 29.2458 2.46005C30.6721 2.23866 30.1424 1.97649 30.3461 1.48129C31.3533 1.5279 31.8016 1.19 32.0519 1.51625C30.5906 1.67937 32.5119 2.18623 32.0869 2.55326C31.3708 2.76299 30.7769 2.50083 30.3869 2.70473C30.8817 3.00768 32.2266 2.70473 33.228 2.79795C33.2804 2.53578 33.3852 2.29692 34.3399 2.09884C33.6122 1.5512 35.2889 1.41138 35.4286 0.741402C35.9642 0.619058 36.7677 0.578277 37.4081 0.490888C38.0427 0.747228 36.7444 1.07348 36.3019 1.28321C37.0879 1.39973 36.3485 1.8658 36.0399 1.95319C36.7386 1.91241 37.4139 1.88911 37.4605 2.09301C36.9249 2.28527 36.9482 2.05223 36.0457 2.13962C36.3776 2.42509 35.6091 2.38431 35.4927 2.53578C37.4721 2.39596 35.1026 2.91447 36.0749 2.98438C38.1824 2.24449 39.5273 1.27156 41.6639 0.537495C41.8793 1.0327 40.942 1.24826 41.4252 1.8658C41.0177 1.92989 39.9581 1.80172 40.0105 2.00562C40.5927 2.00562 40.5927 2.24449 41.1749 2.25031C40.9129 1.92989 42.1005 2.05806 42.3101 2.12214C42.6944 1.53955 43.7656 1.89493 44.0101 2.06388C44.6855 1.95319 44.7495 1.65607 45.9837 1.71433C46.1002 1.87163 45.5704 1.97067 45.9837 1.99397C47.02 1.53955 46.7231 1.95319 48.819 1.80754C48.883 1.70268 49.2789 1.56286 49.4012 1.69685C48.6793 1.76094 48.9354 2.11632 48.2776 2.20371C49.6049 1.95902 53.5173 2.25614 52.2365 1.62111C53.0748 1.46381 53.1971 1.66772 53.9306 1.47547C54.2974 1.75511 52.9758 1.98232 53.6628 2.05806C54.2043 2.02893 53.8549 1.73763 54.507 1.74928C54.734 2.09301 55.293 1.74928 56.2128 1.88911C56.4515 1.77259 56.5796 1.62111 56.4806 1.40556C58.6464 1.49877 60.9111 0.822965 62.4306 1.13756C62.547 1.29486 62.0172 1.3939 62.4306 1.41721C63.0879 1.31924 63.7513 1.26862 64.4159 1.26573C64.346 1.13174 63.9443 1.12009 63.8337 1.00357C66.0169 1.06183 69.8186 1.08513 71.2042 0.688969C72.1706 1.02105 73.533 0.723925 74.3131 0.50254C75.1049 1.00939 77.3172 0.642362 78.2953 0.665666C78.0047 0.705272 77.7196 0.777583 77.4453 0.881224C77.6408 0.893475 77.8353 0.918777 78.0275 0.956961C78.6621 0.613232 78.3185 0.956961 78.8774 0.956961C81.1422 0.910354 85.0196 0.461758 86.5391 1.03852C86.5391 0.875398 86.4692 0.747228 86.248 0.671492C88.0528 0.834617 88.9435 0.671491 91.0627 0.450107C90.9637 0.741402 92.099 0.584103 92.2271 0.799661C92.7051 0.699877 93.1744 0.561547 93.6301 0.386022C94.3346 0.479237 93.048 0.75888 93.9271 0.852094C94.5558 0.356892 95.761 0.852095 96.7565 0.589929C96.3897 0.356892 95.3709 0.712273 95.336 0.53167C95.9182 0.304459 98.4914 0.234548 97.8918 0.560799C97.7171 0.47341 97.6705 0.846269 97.0534 1.05018C97.9325 0.980265 97.9384 0.636536 99.0271 0.624884C99.4254 0.650879 99.8177 0.735285 100.191 0.875398C99.9644 0.659839 101.542 0.619058 101.327 0.846268C101.42 1.14339 100.5 0.63071 100.477 0.962787C100.628 1.19582 100.477 1.54538 101.344 1.51042C101.455 1.27739 100.82 1.31817 101.047 1.04435C101.583 0.852094 101.758 1.04435 102.462 1.00939C101.88 0.828791 102.829 0.642362 103.3 0.514192C103.469 0.677317 102.974 1.09678 103.603 1.09678C103.813 0.479236 106.106 0.764706 107.562 0.712273C108.261 1.18417 108.482 0.98609 109.565 1.41721C110.025 1.11426 108.499 1.056 109.268 0.956961C109.454 0.922006 110.083 0.956961 110.403 0.927831C110.525 0.520018 109.635 0.828791 109.547 0.665666C109.966 0.665666 109.798 0.432629 109.821 0.281155C111.294 0.339415 112.412 0.2462 113.232 0.677317C112.534 0.817139 111.853 0.496714 111.812 0.712273C112.505 0.776358 114.513 0.962787 114.647 0.648188C113.937 0.543321 113.762 0.712273 113.512 0.578277C114.094 0.537496 113.774 0.222896 114.356 0.182115C114.408 0.531669 117.098 0.450107 115.788 0.718099C117.482 0.51231 119.194 0.51231 120.888 0.718099C120.562 1.01522 120.178 0.718099 119.759 0.927831C120.416 1.02161 121.083 1.03921 121.744 0.980265C121.284 0.566625 122.949 0.321937 123.159 0.665666C122.396 0.63071 121.721 1.08513 122.32 1.15504C123.468 0.750028 124.686 0.581582 125.901 0.65984C126.052 0.490888 126.035 0.263678 126.483 0.176289C126.413 0.485062 127.374 0.426803 127.647 0.624884C127.875 0.316111 127.88 0.420977 127.351 0.252026C128.329 0.397674 129.097 0.170463 130.186 0.0947266C130.273 0.281156 129.807 0.286981 129.604 0.391848C130.353 0.533164 131.112 0.611119 131.874 0.624884C131.67 0.560799 131.158 0.176289 132.154 0.240374C131.787 0.718099 133.033 0.619058 133.015 0.974439C132.107 0.916179 132.433 0.910354 131.886 1.09678C131.962 0.875398 131.81 0.741402 131.304 0.72975C130.925 0.927831 129.324 0.729751 129.33 1.056C130.751 1.10261 130.064 1.73763 130.192 1.79007C130.465 1.47547 130.774 1.88328 131.042 1.8658C130.716 1.67937 131.478 1.41138 131.624 1.66772C131.205 1.66772 131.368 1.90076 131.35 2.05223C131.63 1.96079 131.925 1.92707 132.219 1.95311C132.512 1.97914 132.797 2.06439 133.056 2.20371C133.009 1.97067 132.992 1.74346 133.638 1.72015C134.038 1.83568 134.427 1.98376 134.803 2.16292C134.803 2.03475 134.931 1.95319 135.076 1.87745C134.337 1.76094 133.522 1.67355 133.365 1.3473C134.686 1.17252 135.449 1.39973 135.647 1.85998C136.334 1.60946 136.229 2.04641 137.347 1.92406C137.347 1.80172 137.708 1.78424 137.626 1.63277C136.718 1.59781 136.753 1.82502 136.206 1.6619C135.752 1.30069 136.939 1.45216 137.05 1.26573C136.765 1.26573 136.689 1.10843 137.05 1.07931C137.091 1.47547 138.645 1.34147 139.332 1.51042C138.948 1.58033 138.808 1.72015 138.75 1.89493C139.332 1.89493 139.804 1.36477 140.159 1.58616C139.448 1.77841 140.63 1.58616 141.009 1.58616C139.92 1.94154 140.491 2.52413 140.753 2.81543C140.863 2.50665 142.26 2.59987 142.726 2.40179V2.21536C141.847 2.10466 141.16 2.5183 140.747 2.25031C140.968 2.25031 141.329 2.25031 141.329 2.14545C141.108 2.14545 140.747 2.14545 140.747 2.05806C143.204 1.91824 144.286 2.13379 145.561 1.78424C145.561 2.18623 147.279 1.60364 147.832 1.92989C147.57 2.03475 146.79 1.98232 146.988 2.23283C147.555 2.30629 148.132 2.26267 148.682 2.10466C148.1 1.97649 148.991 1.83085 148.1 1.73763C148.574 1.69277 149.053 1.71632 149.52 1.80754C148.845 2.20953 149.299 2.39013 148.117 2.68143C148.985 2.73386 148.95 2.50083 149.817 2.55909C148.897 2.27944 151.797 2.23284 150.656 1.88328C150.953 1.80754 151.954 1.48712 152.35 1.75511C151.651 1.62111 151.523 2.09301 152.076 2.04641C152.076 1.85415 152.845 1.91241 152.658 1.65607C152.28 1.65607 152.396 1.49294 152.076 1.47547C152.198 1.63277 151.017 1.47547 150.941 1.40556C152.297 1.33564 152.012 1.17835 151.523 0.922005C152.757 0.991916 152.687 1.5046 153.52 1.73763C153.404 1.51042 154.038 1.52207 153.799 1.25991C155.127 1.16669 155.127 1.54538 156.07 1.59199C156.07 1.3706 157.403 1.08513 157.764 1.28321C157.31 1.8192 154.981 1.5046 154.37 1.81337C155.633 1.90076 153.928 2.24449 155.243 2.73969C156.681 2.73969 155.36 1.98815 156.932 2.33188C156.239 2.41344 156.879 2.61734 157.217 2.42509C157.275 3.00768 154.888 3.52036 156.961 3.84079C156.903 3.69514 157.106 3.00768 158.364 3.15333C157.601 3.40384 158.603 3.28732 158.946 3.15333C158.998 3.29315 158.853 3.50288 159.237 3.52619C159.86 3.52619 160.023 3.29898 160.081 3.13002C160.663 3.43297 161.275 2.94942 161.781 2.90864C160.733 3.35141 161.356 3.36306 160.378 3.5961C160.716 3.5961 160.553 3.70096 160.378 3.78835C161.42 3.80294 162.461 3.72103 163.487 3.54366C163.871 4.55155 166.398 3.03681 166.608 3.49123C166.544 3.66601 166.142 3.44462 166.025 3.59027C166.561 3.7534 165.641 3.88739 166.608 3.96313C166.683 3.76505 167.667 3.85826 167.737 3.66018C167.702 3.36889 167.859 3.13585 168.319 2.99603C168.383 3.06594 168.558 3.10089 168.901 3.07759C169.379 3.36889 167.859 3.47958 168.628 3.55532C169.396 3.63105 169.658 3.08342 170.043 3.34558C169 3.58445 171.649 3.19411 170.625 3.43297C170.337 3.46768 170.054 3.53411 169.781 3.63105C170.31 3.63105 169.623 3.79418 170.066 3.81748C170.695 3.59027 171.172 3.81748 172.051 3.78835C173.215 3.51453 173.314 2.69891 174.589 3.09507C174.083 3.09507 173.926 3.19411 174.007 3.38636L175.701 3.35724C176.161 3.72427 174.479 3.40967 174.578 3.66018C175.16 3.66018 174.939 3.9107 175.713 3.82913C175.713 3.68349 175.666 3.50288 176.295 3.53784C177.18 3.71262 175.329 4.02721 176.022 4.12043C176.214 3.68931 177.652 4.20199 177.716 3.81748C177.658 3.70679 177.401 3.67183 177.134 3.63688C177.07 3.70679 177.134 3.82331 176.854 3.82913C176.825 3.50871 177.681 3.4621 178.257 3.33393C178.921 3.38636 178.682 3.75922 179.422 3.78835C179.753 3.6427 179.654 3.36306 180.545 3.39802C180.982 3.62523 181.127 3.95148 181.972 4.03887L186.222 4.068C186.169 3.70679 186.454 4.03304 187.072 3.96313C186.862 3.70679 187.654 3.76505 187.654 3.57862C188.51 3.56274 189.366 3.64484 190.204 3.82331C190.035 3.99226 188.859 3.82331 188.789 4.03304H189.924C190.297 4.2486 189.785 4.2486 190.507 4.4059C190.099 4.45833 189.039 4.31268 189.092 4.51659V4.70885C191.129 4.41172 193.278 5.05257 194.192 4.35347C194.378 4.63311 195.176 4.70885 196.177 4.70885C196.177 4.45251 195.705 4.52242 196.177 4.33016C198.226 4.5865 197.964 4.02139 200.148 4.10295C200.782 4.36512 201.516 4.2486 202.983 4.35347V3.97478C203.891 3.88739 203.565 4.21364 204.118 4.2486C204.572 4.1146 205.015 3.96896 205.527 3.85826C205.777 4.15538 205.09 4.15538 204.945 4.33599C206.75 4.33599 205.096 4.53989 204.665 4.62146C206.36 4.62146 206.773 4.47581 207.786 4.67972C207.873 4.45833 208.659 4.45833 208.91 4.28938C208.485 4.00974 207.303 4.51076 207.495 4.12043C210.317 3.77078 213.172 3.77078 215.995 4.12043C216.461 4.12043 216.146 3.85826 216.577 3.83496C217.322 4.05052 219.348 3.83496 219.698 4.17869C217.852 4.09713 218.923 4.09713 218.562 4.37677C218.487 4.2486 217.939 4.27773 217.712 4.20199C217.788 4.59815 216.821 4.64476 217.712 4.95353C217.258 5.12249 215.937 5.00597 216.018 5.34969C218.731 5.69925 218.236 4.18451 219.977 4.83702C219.546 5.10501 218.958 4.83702 218.568 5.22735L222.533 5.18657C222.451 4.97101 222.597 4.83119 223.115 4.80789C223.162 4.94771 223.016 5.15744 223.4 5.18074C224.145 5.06423 224.279 5.09336 223.982 4.80206C224.456 4.78283 224.929 4.81015 225.397 4.88362C225.042 4.9244 224.815 5.01179 224.815 5.16909C229.577 5.22735 233.053 5.50117 237.85 5.27396C238.071 5.51282 236.744 5.7109 237.571 5.85655C237.949 5.79246 238.095 5.65264 238.153 5.47787C243.917 5.373 246.397 5.67595 252.318 5.85655C252.488 5.71967 252.687 5.62396 252.9 5.57691C253.75 6.10706 254.699 5.72838 256.014 5.8449C256.183 6.18863 255.688 6.30514 255.432 6.50905C255.715 6.56249 256.001 6.59366 256.288 6.60227C256.414 6.40529 256.58 6.2364 256.774 6.10611C256.968 5.97582 257.187 5.88691 257.418 5.8449C257.947 6.24688 259.321 5.99637 259.968 6.30514C260.189 6.41584 259.577 6.78869 260.55 6.40419C261.097 6.75957 260.422 6.94599 261.132 7.24894C260.026 7.10329 260.55 7.49363 260.002 7.53441C259.643 7.38574 259.255 7.32194 258.867 7.34798C258.867 7.4412 258.64 7.45867 258.582 7.54024C259.211 7.88979 259.118 8.02379 258.302 8.29178C258.712 8.24113 259.125 8.34047 259.467 8.57142C259.042 8.57142 258.419 8.57142 258.302 8.67046C258.605 8.91515 259.787 8.86272 260.008 9.13654C259.857 8.89767 259.519 8.77533 260.59 8.75785C260.492 9.07245 260.462 9.34044 261.72 9.13071C261.72 8.97341 260.934 9.0841 260.87 8.94428C262.267 8.7462 262.157 9.43366 262.855 9.60261C263.635 9.63756 263.123 9.24723 263.705 9.2181C264.2 9.29272 264.679 9.45236 265.12 9.69C265.44 9.50939 265.452 9.23558 266.535 9.30549C265.894 9.59096 265.219 10.0104 266.255 10.3425C264.596 9.8473 263.449 9.59096 263.99 10.4474C263.659 10.6804 262.919 10.2551 262.576 10.5464C263.692 10.7851 264.843 10.8127 265.97 10.628C266.278 11.0824 267.519 10.6629 267.955 11.0008C266.965 11.1989 264.998 10.8086 265.69 11.3853L263.117 11.1465C262.867 11.2047 262.436 11.6592 262.267 11.4319C262.389 11.2572 263.076 11.263 262.849 10.96H261.999C262.36 11.0824 262.36 11.3038 261.999 11.4319C260.253 11.4902 257.685 11.4669 256.335 11.4319H256.917C256.061 11.2746 256.841 11.0067 256.335 10.8494H255.752C256.405 11.3737 254.367 11.7291 256.038 12.0728C255.17 12.1427 255.496 11.8165 254.623 11.8864C254.885 12.0553 254.722 12.3583 255.205 12.469C256.242 11.8864 259.17 12.2301 260.864 12.469C260.206 12.407 259.543 12.407 258.885 12.469C259.496 12.667 258.85 12.7777 258.599 12.9409C256.416 12.801 255.438 12.5563 253.791 13.0515C253.791 12.8884 253.575 12.8069 253.208 12.7719C253.039 12.935 251.863 12.7719 251.794 12.9642C252.923 13.069 251.252 13.6225 252.929 13.6225C253.511 13.5642 253.511 13.471 253.208 13.337C254.332 13.2904 254.734 13.5467 255.188 13.238C255.234 13.3487 255.141 13.506 255.473 13.5176C255.619 13.4011 256.16 12.935 256.602 13.2321C255.939 13.5642 258.209 13.1448 257.738 13.605C258.64 13.6574 258.611 13.4244 259.152 13.605C259.152 13.5118 258.925 13.4943 258.867 13.4186C259.752 13.4885 262.587 13.8089 261.132 13.3195C263.461 13.5176 266.005 13.104 267.361 13.6749C268.526 13.6283 267.559 13.605 268.491 13.3894C268.712 13.972 271.128 13.3021 271.606 13.8555C271.908 13.64 272.665 13.5759 273.02 13.3778C272.541 13.3768 272.063 13.3141 271.6 13.1914C271.978 12.9642 272.653 13.2962 272.735 13.0982C272.648 12.7661 271.966 13.0982 271.885 12.9117C272.345 12.5796 275.035 12.6729 274.714 13.1855C274.068 13.1855 273.649 13.1855 273.585 13.3778C273.888 13.3939 274.181 13.4905 274.435 13.6574C273.731 13.7798 273.271 13.3836 273.02 13.6574C273.602 13.8031 274.842 13.7332 275 14.0245V13.7448C281.404 13.8847 287.68 14.1585 292.262 14.1235C292.093 14.3449 291.825 14.5605 292.844 14.5954C293.077 14.3274 292.442 14.3507 292.559 14.1235C293.554 14.0653 293.49 14.5663 294.259 14.3099C294.212 14.543 294.206 14.7702 294.841 14.7818C294.87 14.4323 295.155 14.5138 294.841 14.1992L302.194 14.4905C302.456 14.6537 302.293 14.9624 302.776 15.0731C302.84 14.677 303.824 15.178 304.185 14.8867C303.83 14.7527 302.799 14.8459 302.776 14.6012C303.294 14.5488 306.851 14.3449 306.45 14.7003C306.502 14.4964 305.448 14.6537 305.041 14.6012C305.041 14.7469 303.987 14.9916 304.755 15.0731C305.338 14.9857 305.623 14.6071 306.45 14.8867C306.537 15.0731 306.065 15.0731 305.867 15.1722C306.627 15.2507 307.395 15.1875 308.132 14.9857C307.957 14.8518 307.043 14.9857 307.003 14.7935C307.62 14.7352 309.11 14.5663 309.262 14.8984C308.918 14.8984 308.592 14.8984 308.679 15.0848C309.168 15.4052 311.008 15.0848 310.938 15.3761C310.7 15.6499 310.228 15.2537 309.529 15.3761C309.5 15.6324 309.995 15.5683 309.529 15.7548C308.126 15.7897 309.372 15.4693 308.685 15.3703C308.569 15.5334 308.318 15.3703 307.835 15.3703C304.628 15.5113 301.416 15.4452 298.217 15.1722C298.375 15.1722 298.538 15.0964 298.217 15.0731C298.159 15.1489 297.979 15.1838 297.635 15.1722C297.635 15.2887 297.996 15.3003 297.915 15.4518C296.488 15.4169 294.451 15.079 293.391 15.2596C293.764 15.2596 293.752 14.9974 293.391 14.9741C291.685 15.0498 291.644 15.2479 290.847 15.7315C289.985 15.5625 291.615 15.4402 290.847 15.3528C290.579 15.58 289.409 15.4984 289.147 15.7256C288.367 15.312 287.767 15.7548 287.167 15.9121C287.022 15.6208 287.831 15.5276 286.882 15.4402C286.265 15.4402 286.3 15.679 286.3 15.9121C285.619 15.8247 284.932 15.7373 284.321 15.6266C285.205 15.5276 286.067 15.4169 286.3 15.347C284.944 15.1621 283.564 15.3916 282.341 16.0053C281.654 15.8771 282.166 15.813 281.759 15.7198C281.103 15.8257 280.437 15.8569 279.774 15.813C279.704 15.5043 280.874 15.6149 280.909 15.3411C279.238 15.5101 279.244 15.1605 278.929 15.0557C277.358 15.2887 274.79 14.9333 273.556 15.4518C274.035 15.3742 274.526 15.4369 274.971 15.6324C275.716 15.1838 276.56 15.4809 278.079 15.4402C278.114 15.7606 276.607 15.58 276.379 15.8189C276.321 15.7489 276.379 15.6324 276.1 15.6324C274.476 15.7839 274.813 16.3082 274.971 16.8617C274.15 16.5063 273.643 17.0947 272.991 16.6811C273.8 16.6811 274.534 16.6811 274.4 16.3898C272.805 16.5879 271.163 16.0635 269.312 16.6869C266.156 15.8363 262.535 16.85 259.997 16.2441C257.61 16.2441 257.185 17.0947 258.308 17.6657C259.607 17.4618 259.473 17.8346 260.852 17.6657C260.061 17.4093 261.545 17.4909 261.702 17.2812C260.858 17.3977 260.48 16.8908 261.12 16.8151C261.376 16.9782 262.162 16.9666 262.256 17.1879C261.598 17.386 262.57 17.5841 261.673 17.7705C262.256 17.9803 264.089 17.7705 264.218 18.1434C261.196 18.1958 260.404 17.7123 256.864 18.3531C257.432 18.3448 258 18.3739 258.564 18.4405C258.629 18.3706 258.564 18.2541 258.844 18.2541C259.281 18.7376 257.557 18.5162 257.435 18.8367C257.551 18.959 257.802 19.0289 258.285 19.0231C260.07 18.7287 261.896 18.788 263.659 19.1979C264.974 18.5512 267.536 19.495 269.032 19.0872C269.318 19.2095 269.306 19.4367 269.614 19.5591C269.032 19.664 267.868 19.763 267.35 20.1417C266.482 20.2174 266.808 19.8853 265.935 19.9611C265.935 20.0892 265.807 20.165 265.656 20.2407C264.014 20.1999 262.459 20.1475 260.847 20.2407C260.581 20.0818 260.298 19.9547 260.002 19.862C259.892 19.996 259.659 20.0252 260.002 20.1475C258.541 20.2407 258.768 19.7688 258.588 19.6814C257.942 19.7513 258.506 20.2174 257.458 20.1533C257.691 19.7397 256.783 19.3668 255.473 19.2154C255.473 19.3377 255.112 19.3494 255.194 19.5008C256.189 19.2154 256.358 19.8038 256.323 20.1592C255.856 20.095 255.382 20.095 254.914 20.1592C254.641 19.9844 255.758 19.8446 254.914 19.7863C254.332 19.8213 254.122 20.4563 253.214 20.0718C253.523 20.0718 253.895 19.9145 253.499 19.8853C252.684 19.9611 251.997 20.0776 251.241 20.1708C250.955 19.9261 249.022 19.9319 248.411 20.0951C248.26 19.6931 247.037 19.5125 247.555 19.1571C246.676 19.227 244.906 19.128 245.855 18.8833C246.379 18.9415 248.923 18.6502 248.12 19.3435C248.848 19.4251 249.727 19.4834 250.099 19.2328C249.517 19.1746 248.859 18.9299 249.82 18.86C250.152 18.9998 250.065 19.2794 250.949 19.2328C251.834 19.1862 251.095 19.0348 251.532 18.7551C253.604 19.093 255.392 18.8891 257.185 18.8367C256.049 18.6502 255.555 18.2541 254.641 17.9919C254.961 18.1842 254.192 18.4463 254.058 18.1842C254.769 18.0036 253.785 18.2424 253.208 18.1842C252.626 17.8871 254.326 17.8871 253.488 17.8055C252.323 18.0152 252.172 18.3065 252.358 18.2832C252.009 18.423 251.537 18.056 250.944 18.3823C250.21 18.1609 250.286 17.9453 248.964 18.1084C248.76 17.823 249.255 17.7647 249.244 17.5258C248.027 17.654 248.894 17.0772 247.829 17.1588C248.033 17.5317 248.737 17.8346 248.114 18.289C247.637 18.2308 247.654 18.0036 247.27 17.9162C247.194 18.1609 245.331 18.1084 244.72 18.0269C245.151 17.9395 244.644 17.887 245.005 17.6482C242.56 17.6482 243.154 17.0656 241.041 17.1064V17.3918C238.956 17.2054 235.976 17.252 235.946 16.8617C235.9 16.9724 235.498 16.9666 235.102 16.9607V17.2404C233.385 17.3161 232.511 16.885 231.423 17.2695C231.376 17.1588 231.475 17.0015 231.138 16.984C230.317 17.2637 229.391 16.984 228.599 17.287C227.778 16.8908 226.94 17.0015 225.199 17.0248C224.832 16.7918 226.026 16.6287 225.199 16.5529C224.273 16.6636 223.726 16.8908 222.655 16.9491C222.958 16.7044 221.432 16.6287 222.364 16.4772C223.01 16.751 223.004 16.3199 222.364 16.2908C225.188 16.5121 226.957 16.0985 229.158 16.6228C229.088 16.4888 228.692 16.4655 228.576 16.3432C229.996 16.4306 231.772 16.483 232.255 16.2267C232.838 16.4306 234.357 16.3257 235.085 16.4888C235.842 15.9645 237.897 16.4888 238.764 16.5587C238.694 16.4247 238.293 16.4014 238.182 16.2791C239.568 16.1801 240.511 15.9121 241.297 16.2791C241.215 16.116 242.624 15.982 241.879 15.9004C241.704 15.9004 241.541 15.9004 241.594 15.8072C242.345 15.8713 244.604 16.2558 244.703 15.6907C243.383 15.8424 242.047 15.7894 240.744 15.5334V15.9995C238.968 15.9295 238.828 15.7781 237.635 16.116C237.984 15.8305 237.85 15.7489 237.349 15.5334C238.677 15.3644 239.678 15.277 240.744 15.2304C240.674 15.1547 240.744 15.044 240.458 15.044C238.898 15.2246 238.386 14.8518 236.779 15.2596C236.849 14.7935 234.555 15.1314 234.229 14.8051C235.545 14.7061 234.031 14.543 234.229 14.4265C235.533 13.6633 241.215 14.6478 241.867 13.9953C239.317 13.7798 237.687 14.3682 235.923 13.6574C236.575 13.5934 236.674 13.3428 237.332 13.2729C238.025 13.3953 236.826 13.5584 237.617 13.6458C239.509 13.5875 240.703 13.2438 242.426 13.6167C242.741 12.8302 243.812 13.9021 245.535 13.2205C246.862 13.7448 248.056 13.0282 248.935 13.5701C249.686 13.5351 249.925 13.3312 250.635 13.2788C250.676 13.3894 250.588 13.5467 250.915 13.5584C250.915 13.4069 251.7 13.506 251.764 13.3661C251.357 13.1972 251.7 13.0807 251.479 12.7078C252.137 12.5389 252.679 12.9642 253.459 12.6088C252.859 12.2677 252.162 12.1365 251.479 12.2359C251.601 12.7836 249.605 12.0262 249.5 12.7195C249.89 12.4165 248.795 12.1369 249.5 12.0611V12.2476C250.446 12.2422 251.391 12.176 252.329 12.0495C252.085 11.7174 250.938 11.6358 251.194 11.3912C250.495 12.0553 248.376 11.3504 247.52 11.8864C247.899 12.0204 248.103 12.6263 247.241 12.6379C247.177 12.568 247.002 12.533 246.659 12.5505C248.038 12.2825 246.723 11.7058 246.368 11.2339C244.58 11.2805 246.042 11.6184 245.518 11.8165C245.518 11.7582 245.477 11.7058 245.238 11.7232C245.238 11.7757 245.005 11.8281 244.953 11.7232C245.168 11.5776 245.599 11.1406 244.371 11.3504C244.417 10.8319 245.774 11.164 246.35 10.96C245.954 10.7794 244.889 10.8319 244.371 10.6921C243.788 10.7853 244.132 11.1756 243.241 11.1698C243.037 10.9251 243.858 10.7445 243.823 10.4124C244.291 10.4949 244.77 10.4949 245.238 10.4124C244.126 10.2784 245.291 10.3017 245.238 10.0337C244.848 9.98129 245.197 9.67252 244.656 9.66087C244.447 9.66324 244.243 9.7304 244.074 9.85312C244.074 9.98129 244.574 9.94051 244.656 10.0396C244.109 10.0803 244.435 10.4066 243.521 10.3308C243.701 9.93469 242.461 9.96381 243.521 9.74826C243.131 9.60843 242.176 9.70747 242.391 10.0396C240.889 10.1036 242.205 9.64921 241.535 9.57348C240.441 10.2376 240.633 10.2668 240.406 9.67252C240.196 9.67251 239.992 9.73991 239.824 9.86477C239.824 9.99294 240.319 9.95216 240.406 10.0512C240.191 10.0512 240.08 10.1328 240.127 10.2435C239.311 10.0745 237.798 9.97547 237.577 10.4474C238.485 10.1677 237.856 10.9833 239.282 10.8144C239.364 11.2805 237.437 11.5892 236.453 11.397C238.199 11.3096 236.453 11.1232 236.168 10.9309C236.593 10.9309 237.21 10.9309 237.297 10.826C236.715 10.6804 237.466 10.0745 236.162 10.1735C235.981 10.5173 236.779 10.5348 236.744 10.8319C236.081 10.9543 235.396 10.8939 234.765 10.6571C234.561 11.1115 233.746 10.7794 233.065 11.0416C232.739 10.7739 232.467 10.4479 232.261 10.0803C233.035 10.0104 232.843 10.2668 233.396 10.2668C233.396 10.1328 233.53 10.057 233.676 9.98129C231.615 9.82399 230.183 9.54435 228.582 9.82399C228.535 9.7133 228.628 9.556 228.296 9.54435C227.295 9.7366 227.714 9.67252 226.596 9.54435C226.952 10.1269 226.789 10.2668 228.017 10.4765C227.33 10.8202 224.786 10.4765 224.623 10.4066C225.195 10.4662 225.774 10.3986 226.317 10.2085C224.739 10.2784 225.735 9.85895 226.317 9.82982C225.636 9.7133 225.089 9.556 224.326 9.46279C223.505 9.55018 224.012 9.60843 224.052 9.84147C222.818 9.84147 223.534 9.68417 223.47 9.3754C222.719 9.49192 221.799 9.20645 221.77 9.3754V10.0337C220.291 9.75408 220.414 9.56765 218.65 9.12488C218.516 9.42201 219.051 9.49192 219.232 9.70747C217.246 9.82982 219.115 9.18897 217.526 9.25305C217.468 9.42783 217.846 9.45696 217.811 9.62591C217.229 9.81817 217.229 9.59096 216.682 9.54435C216.385 10.0104 214.801 10.4008 216.1 10.7736C215.84 11.0235 215.558 11.2478 215.255 11.4436C215.727 10.861 212.03 11.1873 211.57 10.6338C212.152 10.6338 211.925 10.3716 212.7 10.4357C212.729 10.5814 212.665 10.762 213.282 10.7095C212.793 10.4765 213.602 10.3775 212.991 10.2435C212.519 10.3949 211.721 10.1386 211.296 10.4474C211.163 10.7445 211.809 10.7736 211.588 11.1057C210.813 11.1057 211.005 10.9542 210.452 11.1057C210.278 10.8494 210.807 10.3541 210.161 10.2609C210.202 10.5755 209.579 10.9367 208.758 11.2164C206.397 11.136 204.033 11.2236 201.685 11.4786C203.111 11.1232 203.938 12.0145 205.364 11.63C204.782 11.7465 204.013 11.496 204.782 11.4494C205.044 11.6999 205.661 11.3038 206.476 11.4494C206.918 11.5776 206.732 11.9271 206.767 12.201C205.603 11.8456 203.274 12.4864 202.238 11.9621C202.663 11.9621 203.28 11.9621 203.367 11.8572C203.117 11.5368 202.203 11.8922 201.382 11.6883C201.492 11.8631 200.549 12.4457 201.964 12.4398C203.076 11.9912 205.568 12.4398 205.649 12.6845C206.377 12.6845 206.051 12.3117 206.779 12.2942C207.18 12.6146 208.601 12.3874 209.608 12.3583C209.754 12.6321 208.205 12.836 209.026 13.0224C209.026 12.9059 209.107 12.801 209.608 12.8302C209.981 12.8302 209.864 12.9933 210.19 13.0108C210.19 12.9176 210.417 12.8942 210.47 12.8185C209.742 12.7078 209.923 12.5156 210.185 12.2359C209.451 12.1077 208.88 12.3058 208.199 12.1602C208.461 11.9912 208.199 11.6533 209.043 11.6766C209.812 11.6067 208.851 12.1252 209.626 12.0495C210.173 11.9097 211.372 11.9796 211.035 11.5659C211.925 11.5659 211.809 11.9271 213.02 11.8281C212.793 11.5019 213.334 11.4261 213.602 11.2455C213.136 11.2746 212.833 11.1232 213.317 11.0591C214.365 11.3737 214.155 11.6417 214.737 11.9854C213.66 12.1369 214.679 11.5659 213.602 11.7174C214.219 11.9038 213.573 12.0204 213.323 12.1893C215.116 12.6787 216.984 11.2746 218.702 12.0378C217.992 12.1718 217.811 11.6766 217.538 11.9563C217.538 12.0495 217.311 12.0728 217.258 12.1485C218.545 12.0204 217.637 12.935 218.679 12.603C218.987 12.8418 217.823 13.0632 218.679 13.1855C218.236 12.8593 219.639 13.1215 219.523 12.8942C218.754 12.8185 219.919 12.5971 219.523 12.3117C218.987 12.5039 218.265 12.5855 218.388 12.1369C219.756 12.3233 219.197 11.8805 221.496 12.0087V12.4806C220.664 12.5796 220.449 12.6321 220.082 12.6845C219.925 12.9525 220.32 13.5234 220.943 13.8089C221.607 13.5701 221.467 13.9371 222.358 13.8847C223.703 13.8031 222.451 13.4594 223.202 13.2205C223.645 13.5642 223.621 12.9991 224.332 13.1215C224.396 13.2846 224.052 13.5934 224.914 13.4943C224.914 13.372 224.547 13.3661 224.629 13.2088H225.799C225.973 13.6108 225.217 13.6982 224.669 13.8788C225.112 13.64 223.709 13.605 223.825 13.7914C223.942 13.9779 224.14 13.9313 224.407 13.972C224.886 13.9715 225.362 13.9049 225.822 13.774C225.572 13.3312 227.569 13.2846 226.946 13.0166C228.349 12.9642 227.109 13.2962 227.802 13.3836C229.391 13.2671 229.49 13.2788 230.066 13.5584C231.365 13.7623 231.784 13.4361 230.648 13.2729C232.395 13.2729 233.414 13.5701 234.893 13.2438C235.108 13.4535 233.583 13.5526 234.613 13.7157C235.254 13.5293 235.457 13.4943 235.743 13.8031C234.992 13.8973 234.235 13.9343 233.478 13.9138C233.647 14.3507 231.772 14.0536 232.634 14.4964C231.563 14.642 232.576 14.0769 231.498 14.2226C231.533 14.5138 231.161 14.6711 230.916 14.8867C230.25 14.8136 229.576 14.8811 228.937 15.0848C229.554 15.0848 229.839 15.1605 229.787 15.3644C228.541 15.2421 229.024 15.679 228.943 15.947C228.611 15.5043 226.952 15.9936 226.113 15.4926C226.538 15.4926 227.155 15.5217 227.243 15.3936C225.845 15.3936 227.476 15.143 227.243 14.9217C226.835 15.0615 226.352 14.9974 226.393 14.7411C226.87 14.4672 227.697 15.0906 228.378 14.7411C228 14.7411 228.116 14.5779 227.796 14.5546C227.231 14.635 226.656 14.6073 226.102 14.4731C225.589 14.6012 226.725 15.0557 225.252 15.0557C225.624 14.642 224.902 14.4439 226.096 14.2983C223.656 14.1818 225.589 14.2983 223.837 14.5022C223.383 14.0361 220.844 14.042 220.437 14.1526C221.397 14.409 219.645 14.7352 219.599 15.3178C221.467 15.1314 219.47 16.0635 220.734 15.6849C220 16.5413 217.864 15.9762 215.925 15.9237C215.68 15.6208 216.367 15.6266 216.507 15.446C215.267 15.5276 216.728 15.2537 215.925 15.2596C215.925 15.3877 215.43 15.3528 215.343 15.4576C214.516 16.6753 217.73 16.1218 219.034 16.4539C217.485 16.4539 217.474 16.8908 216.49 16.8617C216.856 17.0481 218.079 16.9433 218.19 17.2171C216.606 17.019 217.462 17.386 216.781 17.7064C215.727 17.8171 216.327 17.3569 215.36 17.4385C215.331 17.9162 215.826 17.7181 216.216 18.021C216.175 18.2308 215.5 17.9045 214.801 18.021C214.691 17.8579 215.22 17.7705 214.801 17.7356C213.02 18.2599 210.842 17.6074 208.578 18.0851C209.474 18.2832 208.741 18.5803 209.433 18.7376C209.882 18.5396 212.566 17.8696 212.828 18.5104C212.106 18.4696 211.838 18.3997 211.413 18.6211C212.606 18.4638 211.465 19.1105 212.269 19.0814C212.298 18.9707 212.35 18.86 212.851 18.8891C212.948 18.9677 213.026 19.0685 213.076 19.183C213.127 19.2975 213.149 19.4224 213.142 19.5474C212.455 19.3319 212.804 20.3514 212.589 20.4038C213.113 20.2349 214.609 20.2582 214.848 20.4738C212.379 20.7417 211.698 20.5553 209.474 20.3398C209.474 20.5029 209.544 20.6311 209.765 20.7126C209.026 20.5152 208.251 20.4913 207.501 20.6427C207.33 20.5077 207.131 20.414 206.918 20.3689C205.707 20.8757 201.184 20.0834 202.121 20.8874H200.957C200.788 20.7243 201.784 20.4912 200.957 20.4155C199.915 20.4563 199.944 20.8408 198.418 20.7301C198.558 20.1475 196.625 20.5903 196.439 20.7301C196.088 20.535 195.702 20.4103 195.304 20.3631C194.326 20.7243 193.912 20.4621 192.201 20.7825C191.898 20.433 193.15 20.5844 193.324 20.3864C192.572 20.3377 191.816 20.3494 191.065 20.4213C191.065 20.5786 191.846 20.4621 191.915 20.5961C191.03 20.5961 192.637 20.8583 191.636 20.8816C191.799 20.5961 190.437 20.3631 189.936 20.6252C189.936 20.7825 190.722 20.666 190.786 20.8C189.435 20.8757 189.453 20.4738 188.242 20.7417C187.456 20.5553 188.754 20.2232 187.66 20.1592C187.304 20.3864 185.43 20.1592 185.121 20.3805C185.778 20.4478 186.44 20.438 187.095 20.3514C187.182 20.5437 187.677 20.5961 187.951 20.7184C187.223 20.7184 187.555 21.0913 186.821 21.1146C186.984 20.4679 185.04 20.8058 184.271 20.6777C184.492 20.6777 184.853 20.6777 184.853 20.5728C184.492 20.532 183.159 20.3631 183.159 20.5029C183.41 20.666 184.108 20.7825 183.159 20.8816C183.084 20.4388 181.651 20.8816 181.465 20.9981C181.261 20.7767 181.465 20.6194 180.045 20.6427C180.277 21.0738 179.736 20.9165 179.462 21.0272C179.521 21.1321 179.777 21.1729 180.045 21.2078C180.161 21.0272 180.144 20.8 180.889 20.8175C180.458 21.2486 179.608 21.5399 177.791 21.5224C177.093 21.4117 178.298 21.2311 177.5 21.1496C176.86 21.4991 174.915 21.5457 175.521 21.1496C174.473 21.1496 174.787 21.5457 173.547 21.4642C173.297 21.1612 174.281 21.2544 174.391 21.0738C173.14 21.167 171.859 21.2078 171.562 20.9223C170.753 20.9223 170.019 20.9223 170.153 21.2253C170.485 21.2253 170.794 21.0505 170.997 21.2253C170.415 21.5049 169.495 21.4059 168.459 21.3593C168.744 21.6389 167.83 21.5341 167.33 21.5632C167.947 21.7496 167.19 21.8312 167.33 22.1458C166.943 22.1779 166.554 22.118 166.194 21.971C167.399 21.971 166.194 21.4875 165.612 21.5108C165.251 21.738 165.647 21.6855 165.333 21.9885C164.43 22.0875 164.75 21.7496 164.197 21.7263C164.162 21.9594 163.243 21.7671 163.068 21.7263C163.138 21.8603 163.534 21.8778 163.65 22.0001C162.666 21.9419 162.567 22.1574 161.671 22.1283C161.56 21.971 162.09 21.8778 161.671 21.8487C161.096 21.8687 160.527 21.9728 159.982 22.1574C159.191 21.9419 161.286 21.4933 160.535 21.301C159.639 21.336 159.371 21.837 158.276 21.5282V21.9069C157.001 21.9069 155.884 21.9477 156.588 22.3147C154.135 22.1063 151.666 22.216 149.241 22.641V22.2157C148.752 22.2623 148.513 22.0875 148.391 22.2157C149.171 22.4021 149.171 22.7517 147.809 22.7983C147.11 22.6876 148.309 22.507 147.518 22.4254C145.544 22.9614 142.86 22.5303 139.891 22.8507C139.617 22.6759 140.735 22.5186 139.891 22.472C139.161 22.708 138.404 22.849 137.638 22.8915C137.673 22.6526 137.486 22.5012 137.056 22.4254C136.439 22.4254 136.159 22.5245 136.217 22.7284C136.512 22.6795 136.814 22.7396 137.067 22.8973C136.846 22.8973 136.741 22.9847 136.788 23.0954C136.019 23.008 134.616 22.9672 134.814 23.4217C133.242 23.5498 134.232 23.2877 133.65 23.1595C132.73 23.6139 131.385 23.4333 129.697 23.3401C129.644 23.2003 129.79 22.9905 129.406 22.9731C129.167 23.2527 128.69 22.8624 127.991 23.0022C127.444 23.445 128.276 23.3518 129.412 23.2527C128.969 23.7537 127.333 23.3925 126.582 23.2236C124.731 23.3343 122.967 23.9285 121.214 23.5265C121.441 23.5265 122.07 23.2003 121.494 23.2411C120.034 23.6981 118.491 23.8274 116.976 23.6197C115.899 23.9751 114.31 23.8936 112.738 23.713V23.9635C111.882 23.9902 111.025 23.9139 110.188 23.7363C109.349 24.0509 108.441 23.9169 107.364 23.8936V24.2722C104.453 24.4004 101.845 24.2722 99.1668 24.3888C97.7171 24.4528 96.5702 24.8898 95.5048 24.9714C95.3185 24.9714 94.0027 24.5111 93.8106 24.9247C93.5312 24.7558 94.6432 24.5868 93.8106 24.5461C90.8182 24.7383 89.4209 24.8607 86.4692 25.018C86.4168 24.8781 86.5624 24.6684 86.1781 24.6509C86.0908 24.7791 85.7822 24.8374 85.9103 25.0354C83.1798 25.2452 81.5905 24.849 79.972 25.1869C79.186 25.0704 80.4552 24.7849 79.675 24.7208C79.1278 24.9189 79.5993 25.0704 79.675 25.3034C78.4 25.519 79.1744 24.983 78.5107 24.9655H77.3812C77.8994 25.5481 74.7032 25.42 75.6871 25.1112C75.7686 25.3326 76.9446 25.1112 76.8165 24.983C76.2343 24.9131 73.824 24.983 75.1281 25.3151C74.1016 25.0326 73.0105 25.0982 72.0251 25.5015C71.4429 25.3151 72.648 24.8432 70.8607 24.9714C71.1052 25.2277 70.4706 25.2277 70.5929 25.4491C69.0792 25.5714 68.8463 25.35 67.4898 25.7287C67.0706 25.5073 66.797 25.3792 67.1871 25.082L65.7724 25.1228C65.621 25.6646 63.9909 25.7695 62.122 25.7928C62.0755 25.618 61.9241 25.484 61.5399 25.4374C61.5399 25.4025 58.7046 26.02 60.1368 25.8511C57.808 26.1365 54.0703 26.1132 53.6279 25.7637C53.168 26.3463 51.631 25.9792 50.2512 26.2472C49.978 26.0987 49.689 25.9814 49.3896 25.8977C49.3488 26.0084 49.4478 26.1657 49.1159 26.189C48.9878 25.7229 48.2368 26.2531 47.707 26.2356C46.7755 26.0841 47.7827 25.7637 46.8396 25.6996C46.2574 25.8103 46.6183 26.1948 45.7276 26.2064C45.4481 26.0433 46.5601 25.8627 45.7276 25.8336H45.1454C45.058 26.055 45.1978 26.1948 45.4423 26.2938C43.1892 26.1715 41.8211 26.1365 40.0629 26.189C39.6146 25.8685 41.0235 26.1016 40.9012 25.8802C36.5406 26.2647 32.1218 26.3637 29.5893 25.8802L26.2068 26.2764C25.939 25.385 21.0893 26.2064 19.9657 25.6472C20.9263 25.4491 22.1082 25.7345 23.0688 25.4374C21.9917 25.3675 21.5493 25.3442 21.9044 24.9131C20.8914 25.2976 20.9321 24.3305 19.6339 24.8082C19.5174 24.6509 20.0472 24.5519 19.6339 24.5286C19.154 24.4977 18.6735 24.5795 18.2308 24.7674C19.3951 24.7092 18.2308 24.9131 18.2308 25.0529C18.6982 25.1313 19.1743 25.145 19.6455 25.0937C19.692 25.3209 19.7037 25.5481 19.3835 25.6763C18.438 25.7465 17.4877 25.7172 16.5482 25.5889V25.117C14.9123 25.2568 14.9996 24.75 13.7071 24.7558C13.9284 24.2897 13.3287 24.1324 12.2692 24.1732C11.9024 23.6897 12.502 23.41 11.39 23.2644C11.9722 23.2178 11.6404 22.9032 12.2226 22.8566C12.2633 23.1886 13.1483 22.6235 13.0726 22.9206C12.7698 22.9556 12.403 23.1012 12.799 23.1187C12.9852 22.9265 14.3767 23.0838 14.4873 22.8682C12.1294 22.5827 12.9387 21.6739 10.476 21.5049C10.3014 21.6739 9.62601 21.6914 9.35239 21.8312C9.19519 22.0293 9.72498 22.4138 9.09622 22.5012C8.81094 22.3206 8.51404 22.14 8.22876 21.9652C8.11816 22.1807 6.72672 22.0234 6.54041 22.2215C6.54041 21.9302 5.53903 22.0176 4.83459 22.0001C5.59143 21.5108 3.40823 21.6739 3.38495 21.202C4.14819 21.2464 4.91324 21.1536 5.64383 20.9282C6.10989 21.2903 6.65765 21.5324 7.23904 21.6331C7.51733 21.572 7.79935 21.5292 8.08322 21.5049C8.19965 21.6622 7.67569 21.7613 8.08322 21.7904C8.54315 21.4583 9.24759 21.4292 8.3685 21.7904C10.7613 21.6331 9.89963 21.0971 11.1572 20.6252C10.1791 20.8233 8.28116 20.7243 8.88083 20.3339C7.75217 20.5074 6.60214 20.4857 5.4808 20.2698C4.89862 20.3165 4.93356 20.5437 4.35718 20.5961C2.9541 20.3922 2.23804 19.9261 0.928131 19.6814C1.14935 19.2911 0.957245 19.3552 0.928131 18.9299C2.0925 18.8308 2.16235 18.423 3.16953 18.2774C4.01044 18.4323 4.86917 18.4657 5.71954 18.3764C4.84042 17.5142 2.97742 16.885 2.80859 16.0461C3.65631 15.9585 4.51083 15.9585 5.35858 16.0461C6.18527 15.5742 5.5274 15.2421 5.31198 14.7294C4.99762 14.7935 4.24661 15.2246 3.87399 14.9508ZM179.783 21.3069C179.736 21.103 179.066 21.1146 178.368 21.1379C178.333 21.5166 179.096 21.3768 179.783 21.3069ZM216.501 17.3802C216.938 17.0889 214.755 17.2345 215.919 17.0073C215.873 16.8966 215.401 16.9316 215.069 16.9199C215.121 17.0015 214.958 17.0132 214.79 17.019C215.319 17.2865 215.909 17.411 216.501 17.3802ZM214.213 15.9878C214.458 16.2208 215.558 16.652 215.378 16.7277C215.803 17.0365 216.175 16.5587 216.507 16.5296C215.593 16.3898 215.413 16.0169 214.213 15.9878ZM243.061 14.8226C243.788 14.7061 240.546 14.7818 242.775 14.6362C242.688 14.508 242.065 14.5605 241.646 14.5488C242.147 14.8692 241.128 15.1664 242.496 15.1314C242.14 15.2826 241.753 15.3503 241.367 15.3295C242.129 15.5625 243.084 15.0731 242.496 15.6965H243.346C243.794 15.277 241.495 14.9916 243.072 14.8226H243.061ZM249.523 5.81577C249.442 6.06628 249.628 6.22358 250.373 6.18863C250.466 5.94394 250.28 5.78664 249.535 5.81577H249.523ZM2.34866 12.0844C3.08832 12.2887 3.86459 12.3226 4.61917 12.1835C3.87537 12.0074 3.10498 11.9737 2.34866 12.0844ZM5.58563 7.71501C6.16782 7.47615 8.22876 7.87814 8.9856 7.58684C7.75137 7.58684 4.5202 7.20816 4.46198 8.04127C5.3129 8.10949 6.16891 8.07624 7.01196 7.94222C6.5466 7.81291 6.06815 7.73669 5.58563 7.71501ZM4.5726 10.96C4.91608 11.3737 6.11542 10.6687 6.84314 11.0649C6.62775 10.7853 7.12262 10.7095 7.10513 10.4823C6.28589 10.7533 5.4342 10.914 4.5726 10.96ZM4.78806 16.617C5.06168 16.617 5.00345 16.4947 5.06165 16.4189C5.46597 16.3502 5.88135 16.4354 6.22604 16.6578C7.10513 16.4422 5.55652 16.3432 5.36441 16.215C4.84042 16.2558 4.70071 16.3898 4.78806 16.617ZM6.00479 11.3737C6.12704 11.5485 7.10513 11.4086 6.87225 11.7174C7.4137 11.6592 7.08188 11.3446 7.99008 11.397C8.84009 11.2513 5.99316 11.3679 7.69901 11.1232C7.23325 10.8785 6.6452 11.3737 6.00479 11.3795V11.3737ZM8.91574 6.45079C9.5723 6.61474 10.2429 6.71618 10.9185 6.75374C11.0116 6.9693 10.1034 6.88773 10.0743 7.06834C9.2243 7.03921 10.3421 6.85861 10.0743 6.68965C9.84723 6.76539 9.30582 6.87026 9.22433 6.72461C8.39761 6.8353 9.40482 7.02173 9.22433 7.19651C9.63766 7.23146 10.6856 7.03338 10.6449 7.23729C11.8092 6.72461 11.099 7.01591 12.3332 6.88774C12.1236 6.54983 11.7859 6.26436 12.8746 6.11289C12.1935 6.0488 12.0188 5.79829 10.8777 5.90898C11.0233 5.76333 11.2911 5.65264 11.4599 5.50699C11.9306 5.59343 12.4077 5.6402 12.8863 5.64682C12.6709 5.36717 13.1599 5.29144 13.1483 5.06423C12.3681 4.86615 12.1527 5.39048 10.8894 5.33222C11.1747 5.72838 10.7089 5.91481 9.48627 5.85655C9.86526 6.02388 10.2541 6.16785 10.6507 6.28767C10.4876 6.61974 9.57361 6.48575 8.93903 6.48575L8.91574 6.45079ZM11.7918 7.47615C11.3726 7.07999 10.0452 7.51693 9.53287 7.65675C10.2198 7.94222 10.8079 7.41207 11.815 7.48198L11.7918 7.47615ZM12.537 20.0951C11.5356 20.2116 12.537 20.3281 12.275 20.6777C12.7408 20.5961 13.0202 20.0951 13.6897 20.6252C14.2253 20.5611 15.4013 20.6893 15.0986 20.3805C14.2423 20.4601 13.3788 20.365 12.5603 20.1009L12.537 20.0951ZM12.0712 7.37129C12.4525 7.48119 12.8418 7.56105 13.2356 7.61015C13.8168 7.55926 14.3855 7.41158 14.9181 7.1732C14.0273 6.89356 13.1483 7.40042 12.0945 7.37711L12.0712 7.37129ZM12.537 4.61563C12.112 4.97101 13.5034 4.61563 13.3986 4.87197C13.8178 4.77293 13.9808 4.60981 13.9517 4.37677C13.5203 4.58814 13.0378 4.67298 12.5603 4.62146L12.537 4.61563ZM13.8177 8.53647C13.7654 8.42578 13.876 8.36752 14.0914 8.33839C14.1962 8.10535 12.8047 8.43743 13.2356 8.08205C12.3157 8.15778 12.7233 8.68794 13.8411 8.54229L13.8177 8.53647ZM13.9109 18.1376C14.7318 18.592 15.3256 19.2095 15.9369 19.4834C16.851 18.8833 13.94 18.6095 15.3198 18.1376C15.0695 17.8463 14.6154 18.2599 13.9109 18.1376ZM15.0753 19.8853C15.5178 20.1825 16.7229 19.6057 16.7753 20.0077C17.8523 19.5999 15.5934 19.6232 15.1044 19.9145L15.0753 19.8853ZM15.7797 23.7246C15.2791 23.812 15.7448 23.8994 15.7797 24.0101C16.3153 23.946 16.9907 23.9285 16.8976 23.6838C16.4085 23.643 16.0068 24.0334 15.8089 23.7537L15.7797 23.7246ZM30.9167 2.90281C31.2376 3.02651 31.5321 3.2104 31.7841 3.44462C32.4013 3.40967 32.3663 3.18246 32.3314 2.94942C31.8724 2.88104 31.4063 2.87516 30.9458 2.93194L30.9167 2.90281ZM33.7636 3.37471C33.5714 3.63688 35.0968 3.26402 34.9279 3.52619C35.3239 3.35141 35.4345 2.85038 35.1899 2.76299C34.3516 2.93194 35.2656 3.31063 33.7927 3.40384L33.7636 3.37471ZM39.5855 7.70919C40.2259 7.55771 41.4077 7.56354 41.268 7.18486C40.5461 7.3305 39.6903 7.42372 39.6088 7.73832L39.5855 7.70919ZM42.4091 7.33633C41.7047 7.58684 43.393 7.14407 43.2649 7.49363C43.7656 7.45285 43.9053 7.31303 43.8471 7.09747C43.6259 7.1732 43.0786 7.27224 43.0029 7.09747C42.6885 7.19068 42.8108 7.34798 42.4324 7.36546L42.4091 7.33633ZM42.3218 4.59815C43.2358 4.65059 42.904 4.33599 43.4454 4.27773C43.131 4.068 41.9666 4.34764 42.345 4.62728L42.3218 4.59815ZM43.3523 10.0396C43.9211 10.0622 44.4906 10.0113 45.0464 9.88808C44.7029 9.68417 43.131 10.191 43.882 9.64339C43.4337 9.7133 43.2882 9.85312 43.3755 10.0687L43.3523 10.0396ZM43.6899 2.40761C43.9694 2.63482 44.7786 2.24449 45.6752 2.34353C45.0238 2.15047 44.3275 2.17295 43.6899 2.40761ZM44.8543 2.55909C45.0406 2.8096 45.6461 2.90281 46.5659 2.87951C46.6009 3.34558 45.7334 2.9669 45.1629 3.21159C45.5471 3.59027 46.0885 3.17663 46.857 3.15333C46.8919 2.92029 46.892 2.69891 46.5601 2.57074C46.1526 2.57074 45.7567 2.57074 45.7101 2.69308C45.3783 2.6756 45.3783 2.5183 44.831 2.56491L44.8543 2.55909ZM45.4714 4.05052C46.0128 3.89904 47.218 3.93983 46.8687 3.53201L45.7392 3.56697C45.4831 3.68931 45.3492 3.84079 45.4481 4.05634L45.4714 4.05052ZM47.381 2.40761C47.4625 2.18623 47.3228 2.04641 47.0841 1.94737C45.7043 1.94737 45.6868 2.56491 47.381 2.40761ZM48.8423 3.86992C48.2252 3.90487 48.2601 4.12626 48.2601 4.35929C49.1159 4.32434 49.1392 3.92817 48.8423 3.84661V3.86992ZM55.3163 2.23283C56.2186 2.40179 57.5751 1.91824 58.4251 1.76094C58.1922 1.51625 57.0977 2.01145 57.0046 1.61529C56.795 1.44051 56.5621 1.73181 57.0046 1.7085C57.0803 2.07554 55.9625 2.08136 55.3163 2.23283ZM56.3176 25.6006C56.4573 25.9093 57.4238 25.6996 58.0176 25.6413C57.9769 25.4374 56.8183 25.6413 56.3176 25.6006ZM60.1135 1.52207C60.3709 1.68068 60.6776 1.73876 60.9751 1.6852C61.272 1.59198 61.0508 1.33564 61.8193 1.37643C61.4118 0.980264 60.6491 1.42303 60.1135 1.52207ZM92.1339 0.811313C92.0233 1.13174 92.7161 1.35312 93.2983 1.16087C92.6404 1.14339 93.013 0.753054 92.1514 0.811313H92.1339ZM99.2483 1.85415C98.2295 2.08136 99.8305 2.14545 99.8305 2.3144C100.867 2.08719 99.2716 2.0231 99.2657 1.85415H99.2483ZM104.063 1.54538C103.929 1.35895 102.072 1.42303 102.648 1.76676C103.027 1.63277 103.702 1.61529 103.813 1.83085C104.692 1.82502 103.079 1.58033 104.08 1.54538H104.063ZM104.063 1.16669L104.901 0.863747C105.629 0.863747 105.367 1.20165 105.769 1.31234C107.23 0.694795 103.172 0.659839 104.075 1.16669H104.063ZM114.839 1.19582C115.678 1.11426 116.836 1.12591 117.098 0.863747C117.838 1.0327 118.903 1.19 118.263 1.59199C119.503 1.59199 118.845 1.28904 119.963 1.46381C119.893 1.13756 118.286 1.36477 118.798 0.828791C117.523 0.613232 115.94 1.09096 115.392 0.619058C114.932 0.723924 115.107 1.02687 114.851 1.19582H114.839ZM119.415 2.89116C119.246 3.26402 120.97 2.9669 121.686 3.02516C121.243 2.69891 120.481 3.03681 119.427 2.89116H119.415ZM125.336 1.06183C124.608 1.09678 125.732 1.2133 125.336 1.44051C126.256 1.53373 125.546 1.12591 126.466 1.22495C126.442 0.875398 125.371 1.24243 125.336 1.06183ZM125.645 1.9998C125.732 2.12214 126.355 2.05806 126.809 2.06971C126.809 1.85415 125.359 1.48712 127.077 1.48712C126.343 1.01522 125.936 1.78424 125.645 1.9998ZM127.339 1.77259C127.141 2.06388 127.834 2.04058 127.636 2.35518C128.096 2.18623 128.631 1.69685 127.339 1.77259ZM143.512 2.40761C143.087 2.50083 143.594 2.54743 143.239 2.79212C143.687 2.79212 144.316 2.72804 144.374 2.86786C145.136 2.68726 143.588 2.55909 143.512 2.40761ZM145.794 3.1242C146.039 3.39802 146.505 2.9902 147.209 3.1242C146.999 2.84455 147.494 2.77464 147.483 2.54161C146.813 2.32605 146.959 2.69308 146.068 2.66395C146.895 2.83873 147.139 2.9902 145.794 3.10089V3.1242ZM150.615 3.31645C148.991 3.06594 151.075 3.70679 149.777 3.80583C151.104 4.15538 150.172 3.32228 150.615 3.29315V3.31645ZM151.197 2.55326C151.864 2.53214 152.528 2.45615 153.182 2.32605C153.078 2.20953 152.676 2.19205 152.6 2.05806C151.995 2.16292 151.145 2.20953 151.168 2.52996L151.197 2.55326ZM151.197 3.21159C151.628 2.90281 153.147 3.37471 151.779 3.39219C151.855 3.49123 152.361 3.44462 152.361 3.57279C152.519 3.27567 153.526 3.25237 153.485 2.89116C152.792 2.96107 152.03 3.10672 152.065 2.72804C151.465 2.78047 151.273 2.9902 151.18 3.18828L151.197 3.21159ZM153.171 2.629C152.973 2.89116 154.504 2.53578 154.306 2.79795C154.358 2.629 154.475 2.1571 153.444 2.15127C153.293 2.40761 154.102 2.48335 153.153 2.58822L153.171 2.629ZM153.479 4.03887C154.475 3.90487 154.411 3.88157 155.179 3.81748C154.748 3.33976 156.029 3.39802 155.726 2.96107H154.597C156.058 3.42132 153.788 3.57279 153.462 3.99808L153.479 4.03887ZM158.294 3.66601V3.95148C158.864 3.90933 159.432 3.83542 159.994 3.73009C159.575 3.50871 158.998 3.8 158.276 3.62523L158.294 3.66601ZM164.238 21.5341C164.484 21.626 164.753 21.6365 165.006 21.5642C165.258 21.4918 165.481 21.3404 165.641 21.1321C164.989 21.2078 164.89 21.4583 164.238 21.5341ZM171.574 20.6718C171.574 20.8117 173.67 20.8466 173.268 20.5553C172.701 20.5552 172.135 20.5941 171.574 20.6718ZM181.244 4.59233C182.129 4.51659 181.611 4.33599 181.523 4.12043C180.801 4.15538 180.86 4.47581 181.244 4.59233ZM181.727 18.5745C181.948 18.7842 183.474 18.6386 183.136 18.3648C182.662 18.3868 182.191 18.4472 181.727 18.5454V18.5745ZM182.309 19.5999C182.222 19.8213 182.362 19.9669 182.6 20.0718C183.299 19.7805 183.986 19.9727 184.859 19.8504C184.172 19.7397 183.503 19.5358 184.859 19.6581C184.463 19.1338 183.206 19.8853 182.303 19.5707L182.309 19.5999ZM183.514 4.5632C182.967 4.52824 183.282 4.19617 182.35 4.29521C182.35 4.51659 182.845 4.5632 182.641 4.8778C183.549 4.94771 183.025 4.5632 183.771 4.58068C183.741 4.44668 183.509 4.51076 183.514 4.5632ZM185.308 11.5135C185.115 11.9971 186.513 11.3387 186.722 11.6825C187.788 11.3562 185.837 11.362 185.308 11.5135ZM185.68 18.5046C185.465 18.8716 187.042 18.8483 186.81 18.5046H185.68ZM185.942 16.7102C186.163 16.7918 186.251 16.9199 186.227 17.0831C186.588 16.7277 188.818 16.9666 188.766 16.5005C188.3 16.6927 187.118 16.6927 185.942 16.6927V16.7102ZM186.623 4.2486C186.623 4.34181 186.973 4.31851 187.205 4.33599C187.625 4.44668 187.485 4.7438 188.632 4.59815C188.024 4.24993 187.315 4.12041 186.623 4.23112V4.2486ZM186.85 19.8853C187.303 19.7201 187.792 19.6818 188.265 19.7746C188.347 19.5183 187.683 19.5358 187.101 19.5067C186.891 19.594 186.81 19.7222 186.85 19.8853ZM187.91 14.3041C187.526 14.3391 187.677 14.543 187.63 14.6886C188.277 14.862 188.954 14.884 189.61 14.7527C189.232 14.4206 188.678 14.7527 187.91 14.5896V14.3041ZM187.945 17.3219V17.5142C188.184 17.5142 188.213 17.5142 188.23 17.6016C188.692 17.4981 189.167 17.4609 189.639 17.4909C189.214 17.2171 188.999 17.4151 187.927 17.3219H187.945ZM188.242 18.0735V18.3589C188.521 18.3589 188.463 18.2366 188.527 18.1667C188.912 18.1339 189.298 18.1918 189.657 18.3356C190.268 18.0793 189.179 17.9104 188.224 18.0735H188.242ZM188.242 19.2969C188.77 19.5567 189.354 19.6789 189.942 19.6523C190.087 19.5125 188.836 19.4367 189.651 19.3727C189.202 19.1909 188.706 19.1662 188.242 19.3027V19.2969ZM188.824 20.4213C189.319 20.7243 189.563 20.1708 190.518 20.3048C190.186 20.1708 190.268 19.8853 189.354 19.9436C189.424 20.1766 189.435 20.398 188.818 20.4213H188.824ZM190.704 12.568C190.582 12.3874 190.594 12.166 189.849 12.201C189.558 12.4748 189.528 12.6088 190.699 12.568H190.704ZM190.46 15.3994C189.697 15.6149 191.455 15.7373 191.875 15.8538C192.544 15.8189 191.549 15.6033 191.589 15.4809C191.398 15.5283 191.203 15.5614 191.007 15.58C190.769 15.545 190.512 15.5043 190.454 15.3994H190.46ZM190.46 17.287C190.547 17.5433 191.624 17.4385 191.875 17.6424C192.626 17.4734 191.45 17.1763 190.477 17.287H190.46ZM191.525 12.1777C191.671 12.3175 191.945 12.4107 192.108 12.5505C193.068 12.4864 192.672 12.0495 191.543 12.1777H191.525ZM192.422 16.2208C193.511 16.5296 192.166 16.6927 192.719 16.9724C193.522 16.7976 193.802 16.3898 193.272 16.0228C192.917 16.0577 192.847 16.1917 192.439 16.2208H192.422ZM192.736 18.6677C192.212 18.8425 193.598 18.592 193.872 18.8425C193.656 19.0522 193.289 19.2212 193.289 19.5125C194.599 19.4251 194.454 19.6057 194.145 19.8737C194.43 19.8096 194.43 19.6581 194.989 19.6814C194.768 19.594 194.681 19.4717 194.704 19.3027H193.854C193.975 19.2012 194.065 19.0674 194.113 18.9169C194.162 18.7665 194.167 18.6053 194.128 18.4522C193.901 18.5162 193.353 18.6036 193.278 18.4522C193.016 18.4988 193.126 18.6619 192.754 18.6677H192.736ZM193.837 15.8072C194.163 16.2908 196.777 16.0694 197.807 16.0461C197.673 15.6907 196.282 16.1451 196.101 15.6907C195.251 15.9062 195.31 15.8072 193.837 15.8072ZM194.151 17.9744C194.582 18.3648 195.17 18.6969 196.701 18.7027C195.531 18.3356 196.049 18.2657 194.163 17.9919L194.151 17.9744ZM194.419 14.9683C194.32 15.3819 195.403 15.3877 196.119 15.5159C196.532 15.3644 194.972 15.0964 194.419 14.9683ZM194.483 20.1592C195.143 20.2043 195.806 20.1651 196.456 20.0426C196.008 19.7863 194.751 20.0485 194.471 20.1592H194.483ZM194.582 5.34969C195.123 5.51865 195.094 5.28561 195.997 5.34969C196.206 5.09336 195.414 5.16909 195.414 4.98266C196.975 4.9244 196.404 5.12249 197.679 5.239C197.679 5.05257 196.905 5.12831 197.097 4.86615H194.832C195.583 5.11083 194.198 4.98266 194.57 5.34969H194.582ZM194.716 16.2849C195.333 16.4772 194.582 16.5587 194.716 16.8675C195.542 16.6811 196.689 16.2849 194.704 16.2849H194.716ZM195.513 12.8942C196.096 13.1855 196.678 12.9409 197.499 13.0632C197.394 12.9409 196.998 12.9176 196.916 12.7836C196.247 12.7428 196.317 12.9525 195.513 12.8942ZM196.061 11.4727C195.397 11.6184 196.643 11.8922 196.916 12.0553C197.208 11.6825 198.599 12.1544 199.181 11.9388C198.587 11.6009 196.247 11.9038 196.061 11.4611V11.4727ZM197.557 17.9686C197.667 17.7822 198.651 17.8812 198.395 17.5783C197.062 17.6365 197.976 17.5025 197.813 17.2112C197.05 17.2812 197.26 17.019 196.957 16.9374C196.695 17.0365 195.915 16.9724 196.113 17.2287C197.452 16.885 196.94 17.8521 197.539 18.0618C197.877 18.0269 197.714 17.9511 197.557 17.957V17.9686ZM196.34 11.1873C196.375 11.3679 197.277 11.2455 197.196 11.4611C197.58 11.4319 197.423 11.2222 197.475 11.0824C197.095 11.0713 196.714 11.1025 196.34 11.1756V11.1873ZM198.343 12.935C198.226 13.1331 198.541 13.1855 198.628 13.3137C199.268 13.203 198.733 12.7311 200.043 12.8243C199.699 12.4457 199.076 12.8942 198.343 12.9467V12.935ZM200.672 18.289C200.13 18.2483 199.461 18.592 199.536 18.2075C199.152 18.2075 199.303 18.4463 199.257 18.5862C199.21 18.726 198.744 18.6677 198.413 18.691C198.82 19.0348 201.294 18.4522 200.957 18.8483C201.469 18.8483 201.539 18.726 202.092 18.7435C202.04 18.6328 201.574 18.6677 201.236 18.6619C200.741 18.6502 200.596 18.5162 200.672 18.3007V18.289ZM200.311 11.7291C199.647 11.799 199.787 12.1951 198.902 12.4049C199.839 12.4049 200.91 12.4049 200.881 12.1019C199.594 12.2417 200.293 12.0262 200.311 11.7291ZM200.38 17.7647C199.961 17.8113 200.497 17.887 200.38 18.0502C202.942 17.6598 202.569 17.7006 200.38 17.7356V17.7647ZM200.823 5.09336C201.038 5.41961 201.679 5.14579 202.243 5.09336C201.875 4.94087 201.476 4.87894 201.079 4.91275C201.131 5.01179 201.021 5.07005 200.823 5.09336ZM208.758 5.09336C209.119 5.22735 208.263 5.30891 208.758 5.67595C209.026 5.59438 209.666 5.16909 210.173 5.47204C210.86 5.41378 210.802 5.11083 211.017 4.88945C209.818 4.75545 211.081 5.40795 209.888 5.27396C209.16 5.27396 210.272 5.11083 209.888 4.9011C208.549 4.83119 207.669 4.79623 205.917 4.84867C205.445 5.04092 205.917 4.96519 205.917 5.22153C205.119 5.22153 205.562 4.77876 204.502 4.86032C204.922 5.13414 203.239 5.15162 203.647 4.86032C203.14 4.86032 203.064 4.98266 202.517 4.96519C202.43 5.18657 202.569 5.32639 202.808 5.43126C203.868 5.52447 203.612 5.1924 204.502 5.22735C205.026 5.22735 204.683 5.54195 205.085 5.60021C205.486 5.65847 205.317 5.42543 205.358 5.31474C205.865 5.39048 205.725 5.69342 206.779 5.58273C206.854 5.29144 205.865 5.22153 206.493 5.00014C207.425 5.12249 207.763 5.47787 208.735 5.10501L208.758 5.09336ZM203.152 12.9933C203.536 13.2088 205.277 12.9525 205.416 13.2496C206.307 13.0341 205.777 12.9467 206.831 13.1389C207.047 13.0515 207.134 12.9234 207.111 12.7603C206.488 12.8942 204.502 12.8535 203.152 12.9933ZM203.21 18.2716C203.501 18.3939 203.489 18.6153 203.792 18.7376C204.502 18.8541 204.671 18.3589 204.922 18.6328C205.306 18.5978 205.154 18.3939 205.201 18.2541C204.875 18.4871 203.868 18.1609 204.619 18.0677C204.182 17.7822 203.874 18.3182 203.216 18.2716H203.21ZM204.619 17.5958C203.798 17.7356 205.096 17.9278 205.748 17.8696V17.5841C205.108 17.4618 204.694 17.8404 204.625 17.5958H204.619ZM206.063 17.9628C206.063 18.1492 206.837 18.0735 206.645 18.3298C207.064 18.091 208.257 18.0968 208.618 17.8404C207.687 17.7006 207.308 18.0036 206.063 17.9628ZM206.33 16.448C206.72 16.5646 206.511 16.8908 206.913 17.0306C207.629 16.8442 206.651 16.7044 207.192 16.448H206.33ZM207.78 19.9436C208.979 20.2815 210.848 19.8213 211.745 20.2815C212.1 20.2815 212.024 20.0892 211.745 20.0951C211.803 19.9844 212.03 20.0368 212.03 20.0951C213.078 19.6989 210.557 19.5474 211.448 19.1571C210.138 19.1571 211.39 19.5882 211.174 19.8213C211.116 19.897 210.889 19.9203 210.889 20.0135C209.855 19.8263 208.8 19.7949 207.757 19.9203L207.78 19.9436ZM208.281 14.0012C208.199 14.2459 208.682 14.3041 209.445 14.2692C209.48 13.9953 208.974 13.9429 208.257 13.9779L208.281 14.0012ZM210.289 16.617C211.279 16.617 211.89 15.9645 210.569 16.0344C210.755 16.3141 210.062 16.3082 210.266 16.5937L210.289 16.617ZM210.522 14.0594C210.575 14.3565 211.168 14.4672 211.104 14.8051C211.681 14.642 211.483 13.972 210.522 14.0594ZM213.672 17.2287C213.09 17.4035 211.43 17.1472 210.557 17.4501C211.262 17.9162 212.304 17.2287 213.957 17.4151C214.434 17.1064 212.595 16.9782 213.957 16.9433C213.806 16.8733 213.66 16.7976 213.672 16.6636C213.416 16.7277 213.165 16.786 213.09 16.6636C212.705 16.6986 212.863 16.9025 212.81 17.0481C213.305 17.0306 213.55 17.1006 213.672 17.2171V17.2287ZM214.795 16.7335C214.336 16.6112 214.44 16.2908 213.375 16.3723C213.433 16.6403 213.876 16.7685 214.795 16.7335ZM211.85 4.88362V5.16909C212.327 5.16909 212.379 5.08753 212.432 4.97101C212.857 5.04675 212.845 5.27396 213.014 5.43708C213.835 5.23318 215.517 5.30309 215.558 4.85449C215.095 4.96313 214.624 5.03136 214.149 5.0584C214.889 4.67972 214.423 4.47581 215.838 4.3826C215.442 3.99226 214.376 4.42338 213.573 4.21947C214.306 4.44668 214.126 4.40007 214.155 4.80206C213.394 4.93261 212.618 4.96004 211.85 4.88362ZM212.187 9.98129C212.426 10.2551 212.892 9.8473 213.596 9.98129C213.544 9.90556 213.317 9.88808 213.311 9.79486C213.893 9.74243 213.852 9.92303 213.893 10.0745C214.219 9.91721 214.999 9.75991 214.475 9.59678C213.82 9.70941 213.154 9.74849 212.49 9.7133C212.467 9.81817 212.513 9.98129 212.187 9.98129ZM212.467 12.8942C212.717 13.0282 212.694 13.2555 213.602 13.1622C213.87 12.9875 212.746 12.8593 213.602 12.7894C213.544 12.5622 212.868 12.8942 212.467 12.8942ZM213.858 10.3308C213.812 10.5988 214.813 10.5056 214.44 10.9134C215.285 10.7445 214.749 10.5697 214.72 10.2551C214.446 10.3115 214.167 10.3369 213.887 10.3308H213.858ZM214.44 10.1386C214.81 10.0511 215.19 10.0158 215.57 10.0337V9.65504C214.795 9.69582 214.621 9.91138 214.452 10.1386H214.44ZM215.314 13.0515C215.279 12.8826 215.663 12.8476 215.593 12.6729C216.123 12.5738 216.542 12.9467 216.728 12.6729C216.67 12.2243 215.611 12.7195 214.743 12.5971C214.574 12.7661 215.576 12.9816 214.743 13.069C215.878 13.1506 216.332 13.471 217.578 13.5118C217.357 13.1739 216.228 13.1506 215.325 13.0515H215.314ZM216.181 14.9275C216.134 15.1372 217.188 14.9624 217.596 15.0091V14.642C217.014 14.6071 217.06 14.7818 217.014 14.9333L216.181 14.9275ZM219.296 15.0848C218.83 14.9913 218.354 14.9639 217.881 15.0032C217.724 15.4868 217.415 15.5858 217.607 15.9528C218.366 15.9534 219.122 15.8812 219.866 15.7373C219.645 15.5334 218.877 15.5159 218.452 15.3761C218.795 15.2363 219.581 15.2363 219.581 14.9857C219.56 14.9626 219.533 14.9462 219.502 14.9386C219.472 14.9311 219.44 14.9327 219.411 14.9434C219.382 14.954 219.356 14.9731 219.338 14.9983C219.319 15.0235 219.309 15.0536 219.307 15.0848H219.296ZM218.446 14.7178C218.924 14.6675 219.397 14.568 219.855 14.4206L218.155 14.1526C217.45 14.3915 218.766 14.3507 218.457 14.7178H218.446ZM220.07 6.96347C220.722 6.96347 220.384 6.68965 220.92 6.67218C221.444 6.85278 219.989 7.21399 221.776 7.25477C221.403 6.96347 221.846 6.98095 221.776 6.59644C220.827 6.57896 219.89 6.59061 220.082 6.96347H220.07ZM224.611 7.68006C224.244 7.91892 225.444 8.07039 224.611 8.15778C224.664 8.26265 225.129 8.22769 225.467 8.24517C225.409 8.16361 225.572 8.15196 225.746 8.14613C224.943 8.14031 225.607 7.65093 224.623 7.68006H224.611ZM225.455 7.30137C224.96 6.9693 225.642 7.06834 225.735 6.71878C224.774 6.59061 224.407 7.37129 225.467 7.30137H225.455ZM227.155 7.00425C226.532 7.10329 227.412 7.47615 228.005 7.47033C228.32 7.12077 227.417 7.1732 227.167 7.00425H227.155ZM229.152 7.65093C229.478 7.61597 229.868 7.48198 229.432 7.45867C229.478 7.35381 229.95 7.37711 230.282 7.35963C230.369 7.11495 229.7 7.12077 229.117 7.08582C228.529 7.28972 228.529 7.45867 229.152 7.65093ZM228.861 6.80617C228.861 6.92852 230.55 6.80617 230.276 6.51488C229.904 6.4318 229.521 6.40237 229.141 6.42749C229.123 6.57314 229.28 6.78287 228.861 6.80617ZM230.334 13.7973C229.915 13.9138 229.892 14.1585 229.484 14.275C229.519 14.4498 230.421 14.3332 230.34 14.5546C231.161 14.3915 230.445 14.2517 230.922 14.0769H232.902C232.96 13.9138 232.418 13.8322 232.902 13.7914C232.366 13.64 231.388 13.9604 230.334 13.774V13.7973ZM230.567 7.09747C231.028 7.2212 231.504 7.28195 231.982 7.27807C232.29 7.08582 233.332 6.88191 232.564 6.61392C230.689 6.57314 231.859 7.0159 230.567 7.06834V7.09747ZM231.149 7.84901C231.516 8.02961 231.731 7.6218 232.564 7.84901C232.651 7.47033 231.254 7.5985 231.143 7.26642C229.932 7.65093 231.982 7.69171 231.138 7.82571L231.149 7.84901ZM231.434 8.22769C232.674 8.4316 230.363 8.83941 232.29 8.8802C231.464 8.65299 232.709 8.4549 232.872 8.78116C233.42 8.5889 232.442 8.11118 231.708 8.03544C231.755 8.12283 231.644 8.18109 231.423 8.23352L231.434 8.22769ZM237.379 7.42954C238.654 7.34798 240.214 7.35381 240.202 6.84695C240.062 7.11495 238.595 6.95182 238.508 7.23729C238.234 6.96347 238.362 7.00425 237.652 6.95765C237.035 7.06834 237.85 7.16155 237.367 7.40624L237.379 7.42954ZM235.958 6.87608C236.284 7.01008 236.284 7.10912 235.958 7.25477C235.551 7.0159 234.019 7.15573 233.973 6.79452C233.14 6.8353 233.42 7.24312 232.843 7.37711C233.548 7.70919 235.69 7.54606 235.964 8.01796C236.546 7.92475 236.546 7.6451 237.379 7.63345C236.919 7.33633 237.105 6.86443 235.946 6.85278L235.958 6.87608ZM234.846 9.89973C235.207 10.1211 234.805 10.0745 235.131 10.3716C236.069 10.3716 235.417 9.83564 235.976 9.70165C235.795 9.45696 235.422 9.92886 234.834 9.87643L234.846 9.89973ZM235.428 14.4206C235.306 14.6595 237.885 14.7469 237.693 14.4206C236.628 14.5779 236.494 14.2109 235.428 14.3973V14.4206ZM237.099 9.78904C237.466 10.0454 238.63 9.96964 239.364 9.8706C238.828 9.5327 238.217 9.79486 237.099 9.76573V9.78904ZM241.052 8.23352H239.637C239.637 8.49569 239.166 8.42577 239.637 8.6122C239.911 8.6122 239.853 8.49569 239.917 8.41995C240.423 8.41995 240.499 8.53647 241.081 8.50734C241.128 8.61803 241.023 8.67629 240.802 8.69959C241.681 8.98506 241.093 8.43743 241.052 8.23352ZM241.891 6.90521C241.682 7.08383 241.487 7.27863 241.308 7.4878C242.409 7.12077 242.316 7.36546 243.853 7.4878C243.986 7.19068 243.142 7.15573 242.723 7.3072C242.921 7.0159 242.432 6.96347 242.432 6.72461C241.931 6.63139 242.286 7.25477 241.891 6.90521ZM243.055 16.0461C242.502 16.384 244.12 16.5471 244.47 16.6986C244.854 16.6636 244.708 16.4597 244.755 16.3199C244.182 16.3816 243.602 16.287 243.078 16.0461H243.055ZM243.014 8.50151C243.486 8.68794 242.985 8.62386 243.014 8.8802H244.144C242.659 8.54229 245.308 8.64716 244.423 8.29761C243.991 8.50064 243.509 8.57158 243.037 8.50151H243.014ZM245.273 7.33633C244.26 7.20233 245.57 6.86443 244.138 6.87608C244.074 7.17903 244.639 7.26642 244.423 7.62762C245.483 7.51693 245.232 7.85484 246.123 7.8024C245.285 7.60432 247.043 6.94017 245.267 6.95765C244.819 7.16738 245.32 7.09747 245.296 7.35381L245.273 7.33633ZM245.855 14.2167C246.24 13.9487 246.583 14.4614 247.27 14.3973C246.857 14.042 248.539 14.3682 248.12 14.0128C247.13 14.1934 246.001 14.0478 246.705 13.6458C246.015 13.7151 245.344 13.9127 244.726 14.2284C245.978 14.0827 245.465 14.5372 246.426 14.4964C246.478 14.3507 246.234 14.2692 245.896 14.2342L245.855 14.2167ZM248.091 8.64133C247.788 8.57142 248.062 8.35586 247.509 8.16943C246.775 8.4316 246.659 8.05874 245.809 8.08787C245.642 8.21545 245.437 8.28316 245.227 8.28013C245.716 8.61803 247.73 8.43743 247.782 8.92098C248.714 8.85107 249.587 8.75785 250.612 8.71707C250.612 8.57725 248.929 8.5889 250.326 8.53064C250.006 8.18109 248.365 8.26848 248.132 8.65881L248.091 8.64133ZM245.576 15.2596C245.576 15.5159 246.915 15.4693 247.276 15.3411C247.282 15.1489 246.117 15.3237 245.617 15.277L245.576 15.2596ZM246.665 5.93811C246.694 6.17697 247.608 6.11872 248.359 6.11289C248.335 5.75751 247.398 5.85072 246.705 5.93229L246.665 5.93811ZM246.665 7.35381C246.542 7.54606 246.857 7.5985 246.95 7.72667C247.322 7.69171 247.392 7.55771 247.8 7.53441C247.8 7.79075 247.328 7.72667 247.8 7.90727C248.778 7.82571 248.993 8.07622 249.5 7.90727C249.046 7.54606 249.046 7.79658 249.5 7.42954C248.277 7.29555 247.788 7.4645 246.711 7.34798L246.665 7.35381ZM250.641 10.0629C251.415 9.98712 251.223 10.2435 251.805 10.2435C251.852 10.4474 250.798 10.2901 250.385 10.3425C250.129 10.6921 251.881 10.5115 252.085 10.4357C251.567 10.0745 252.254 10.0162 253.22 10.1444C253.22 9.85312 252.323 9.88225 252.638 9.48609C252.265 9.65504 251.013 10.0162 250.938 9.48609C249.931 10.1386 250.006 9.10158 249.244 9.78321C248.894 9.74243 248.661 9.66087 248.661 9.50357C248.167 9.59096 247.678 9.68417 247.817 9.98129C248.312 9.77739 249.337 9.98129 248.667 10.1619C248.83 10.1153 250.053 10.1269 250.687 10.057L250.641 10.0629ZM248.097 11.0183C248.283 11.1756 248.749 11.0766 248.679 10.9193C249.127 10.96 248.923 11.2164 249.814 11.0999C249.907 10.8843 249.768 10.7387 249.529 10.6338H248.679C248.318 10.6921 248.667 10.995 248.143 11.0125L248.097 11.0183ZM249.261 15.1605C249.5 15.2712 249.64 15.411 249.546 15.6324C249.926 15.643 250.305 15.6078 250.676 15.5276C250.379 15.2654 249.558 15.4169 250.094 15.0615C249.833 15.1266 249.565 15.1579 249.296 15.1547L249.261 15.1605ZM249.511 7.99466C249.581 8.15778 249.995 8.20439 250.641 8.17526C250.606 8.00631 250.99 7.97135 250.926 7.79658C250.053 7.70919 250.088 7.94222 249.546 7.98883L249.511 7.99466ZM249.826 14.6886C250.542 15.0848 252.737 14.7935 252.655 14.4847C251.981 14.373 251.289 14.4748 250.676 14.776C250.41 14.7079 250.135 14.6766 249.861 14.6828L249.826 14.6886ZM250.356 7.32468C249.506 7.39459 250.623 7.52276 250.356 7.70336C251.078 7.70336 251.817 7.70336 251.77 7.41789C251.316 7.38876 251.287 7.50528 250.926 7.51111C250.705 7.4645 250.455 7.42372 250.391 7.31885L250.356 7.32468ZM250.356 11.0999C251.223 10.9775 251.258 10.8202 250.635 10.628C249.971 10.6338 250.024 10.9775 250.408 11.094L250.356 11.0999ZM250.664 16.6636C252.306 16.7219 250.664 17.1472 250.385 17.5142C251.38 17.3977 252.329 17.2753 253.499 17.2171C253.86 17.2171 253.872 17.4967 253.499 17.5025C253.563 17.6365 254.344 17.5317 254.349 17.689C254.507 17.5258 255.514 16.9957 255.479 17.5899C256.614 17.4676 255.403 17.3977 255.479 17.118C255.555 16.8384 256.236 17.252 256.608 17.019C256.713 17.1821 256.387 17.1996 256.026 17.2112C256.488 17.3341 256.963 17.3967 257.441 17.3977C257.324 16.8151 255.694 16.8151 254.326 16.652C254.477 16.5762 254.623 16.4947 254.606 16.3665C254.955 16.2267 255.688 16.2208 256.02 16.081C254.891 15.7722 253.785 16.2791 254.047 16.7452C254.418 16.8249 254.797 16.8563 255.176 16.8384C255.077 16.9607 254.681 16.984 254.594 17.1239C254.326 16.7685 252.713 16.8733 251.764 16.751C251.945 16.6578 252.411 16.652 252.347 16.4655C252.679 16.4655 252.585 16.6403 252.632 16.751C253.011 16.7595 253.39 16.7263 253.761 16.652C253.243 16.9025 252.818 16.0694 253.761 16.3723C252.684 15.982 251.898 16.2791 250.717 16.6578L250.664 16.6636ZM250.664 15.2479C250.816 15.3237 250.961 15.3994 250.949 15.5276C251.695 15.5567 251.677 15.3295 251.794 15.1489C251.431 15.1361 251.068 15.1615 250.711 15.2246L250.664 15.2479ZM250.967 19.326C250.885 19.4892 252.067 19.6523 251.817 19.326C252.008 19.3711 252.203 19.4023 252.399 19.4193C252.533 19.7164 251.689 19.6873 251.27 19.8038C251.683 20.0776 252.37 19.6756 253.249 19.8038C252.737 19.262 254.268 19.5416 254.379 19.4193C254.245 18.9823 251.689 19.2503 251.013 19.3027L250.967 19.326ZM252.05 8.19274C251.957 8.57142 253.36 8.44325 253.464 8.77533C254.71 8.71707 254.396 8.74037 255.45 8.67046C255.188 8.33256 254.611 8.61803 253.75 8.58307C253.552 8.33256 254.332 8.39665 254.594 8.29761C253.802 8.06457 252.882 8.23352 252.096 8.16361L252.05 8.19274ZM251.764 7.81405C250.524 8.08205 251.695 8.64133 251.182 9.04332C251.462 9.04332 251.404 8.9268 251.468 8.85689C251.974 8.85689 252.05 8.96758 252.603 8.94428C252.422 8.86272 252.259 8.77533 252.603 8.75785C251.299 8.57725 252.271 8.117 251.811 7.78492L251.764 7.81405ZM251.229 14.1352C251.369 14.4556 252.708 14.3158 252.358 13.9429C251.986 13.9662 251.689 14.0594 251.275 14.106L251.229 14.1352ZM252.347 11.397C252.259 11.6475 252.737 11.7058 253.482 11.6766C253.61 11.397 253.133 11.3387 252.393 11.3679L252.347 11.397ZM253.464 8.00048C254.716 7.76162 254.804 8.32673 256.294 8.2743C256.294 8.11118 256.504 8.02961 256.876 7.98883C256.236 7.84901 256.341 7.79658 256.591 7.51693C255.881 7.42954 254.972 7.21981 254.611 7.51693C254.25 7.51693 254.239 7.23729 254.611 7.23729C254.271 7.11687 253.902 7.0979 253.551 7.18269C253.2 7.26748 252.88 7.45239 252.632 7.71501C254.058 7.65093 253.598 7.50528 253.511 7.97135L253.464 8.00048ZM252.626 10.9134C252.894 11.164 254.571 11.2513 254.891 11.1931C254.182 10.9324 253.425 10.831 252.673 10.896L252.626 10.9134ZM252.929 14.7818C254.023 15.2013 254.384 14.6362 254.908 14.3041C254.023 14.3565 254 14.7236 252.975 14.7644L252.929 14.7818ZM254.384 9.94634C253.668 10.2551 255.549 10.3425 256.37 10.226C255.95 10.0046 255.787 10.0512 256.084 9.75408C255.461 9.75408 254.716 10.1794 254.384 9.94634ZM255.787 7.03338C255.857 6.8353 257.033 7.00425 257.202 6.84113C257.01 6.4974 256.073 6.84113 254.937 6.75374C255.355 6.85891 255.744 7.05817 256.073 7.33633C256.748 7.28972 256.131 6.9926 255.77 7.02173L255.787 7.03338ZM255.787 9.20062C256.293 9.17622 256.783 9.01296 257.202 8.72872C256.538 8.52482 255.642 8.81611 255.782 9.18897L255.787 9.20062ZM256.952 10.896V11.1465C257.866 11.0358 258.698 11.4261 259.217 11.1465C259.007 10.9426 258.308 10.9018 256.917 10.8843L256.952 10.896ZM257.225 7.21981C257.808 7.27807 257.045 7.8024 258.075 7.68588C258.093 7.40624 258.075 7.16155 257.191 7.20816L257.225 7.21981ZM259.205 7.21981C258.972 6.95182 259.601 6.9693 259.484 6.74791C258.431 6.678 257.773 7.23729 259.17 7.20233L259.205 7.21981ZM258.623 10.2376C260.049 10.1561 259.851 10.6338 261.173 10.8202C261.609 10.5289 260.049 10.2376 259.467 9.97547C258.809 9.90556 259.152 10.2085 258.617 10.2202L258.623 10.2376ZM262.884 14.9391C262.884 15.0324 263.228 15.0149 263.467 15.0324C263.11 15.1838 262.723 15.2496 262.337 15.2246C262.695 15.3706 263.081 15.4343 263.467 15.411C263.292 15.6033 262.04 15.4402 262.337 15.7897C262.075 15.6208 260.981 15.2479 261.487 15.1314C260.276 14.8343 260.818 15.9121 259.222 15.8014C259.106 15.9995 259.42 16.0461 259.508 16.1742C260.183 16.25 260.823 15.7023 260.922 16.1742C261.947 15.9295 262.622 16.1742 263.467 15.8829C263.798 15.8829 263.711 16.0519 263.752 16.1626C264.736 15.7373 267.88 16.4597 268.561 15.8655C268.811 16.2383 269.964 15.9528 269.975 16.2383C271.466 15.9237 272.718 16.3781 274.784 16.1335C274.732 16.0577 274.499 16.0402 274.499 15.9412C274.26 15.9412 274.237 15.9062 274.22 15.848C273.439 16.3082 272.648 15.7082 271.67 15.6674C271.169 15.9412 268.555 15.9237 267.711 15.5858C268.293 15.6208 270.039 15.6616 270.255 15.1081C269.748 15.1081 269.673 15.2246 269.125 15.2071C269.248 15.0557 270.016 15.1197 269.708 14.8284C268.345 14.7818 268.724 15.3178 267.728 15.411C267.501 15.1722 266.913 15.0557 266.878 14.7527C266.162 14.6537 265.516 15.1081 266.599 15.0324C266.686 15.2013 265.009 15.2071 265.434 14.945C264.945 15.213 265.085 15.1663 264.305 15.2304C263.857 15.0251 263.371 14.9197 262.878 14.9217L262.884 14.9391ZM261.47 14.8518C261.47 14.6595 262.238 14.7294 262.052 14.4731C261.671 14.46 261.29 14.4913 260.917 14.5663C260.87 14.8051 261.353 14.8634 261.767 14.945C262.18 14.8751 261.761 14.8284 261.464 14.8343L261.47 14.8518ZM260.887 19.7572C261.569 20.3398 262.273 19.4426 262.582 19.2794C261.08 19.1047 262.337 19.8853 260.911 19.7397L260.887 19.7572ZM261.138 10.1386C261.644 10.1386 261.72 10.0454 261.423 10.0396C261.767 9.75408 262.506 10.1735 262.838 9.94051C262.387 9.76908 261.902 9.70718 261.423 9.75991C261.481 9.91138 261.097 9.94051 261.161 10.1211L261.138 10.1386ZM265.69 19.1746C265.743 19.46 267.344 19.897 267.39 19.361C266.296 19.4659 266.837 19.0348 265.714 19.1571L265.69 19.1746ZM290.014 14.6187C290.142 14.9333 291.115 14.7527 291.709 14.7178C291.697 14.4905 290.532 14.642 290.038 14.6012L290.014 14.6187Z" fill="#69DAFF"/>
</svg>
